<svg width="22" height="22" viewBox="0 0 22 22" fill="none" xmlns="http://www.w3.org/2000/svg">
<path d="M18.6427 1.0139L18.6322 0.914448C20.0685 0.763488 21.1721 1.8132 21.0963 3.22877C21.0408 4.26621 20.4027 5.52132 19.1768 7.05882C16.9724 9.82358 13.095 13.147 10.274 15.3155C10.5185 16.7475 9.98171 18.2539 9.01039 19.2781C8.2021 20.1304 6.94361 20.7302 5.55959 20.9759C4.17456 21.2218 2.65377 21.1149 1.31594 20.5421C0.876951 20.3542 0.75988 19.7856 1.08821 19.4394M18.6427 1.0139C20.0186 0.86929 21.0689 1.87003 20.9965 3.22343C20.9427 4.22804 20.3219 5.46222 19.0986 6.99648C16.8895 9.76715 12.9884 13.1068 10.1648 15.2732C10.4288 16.6882 9.90339 18.1912 8.93783 19.2093C7.35791 20.8752 3.99 21.5782 1.3553 20.4502C0.980367 20.2897 0.880326 19.8039 1.16076 19.5082C1.95677 18.6689 2.01015 17.7792 2.06672 16.8362C2.1246 15.8713 2.18583 14.8508 3.04928 13.7714C3.97945 12.6087 5.55046 11.9713 7.04103 12.2037L6.95963 12.1457C6.97144 12.1291 6.9833 12.1125 6.99519 12.0959M18.6427 1.0139L18.6322 0.914449C17.5936 1.02372 16.3625 1.7114 14.874 2.98719C12.193 5.28506 9.03878 9.23704 6.99519 12.0959M18.6427 1.0139L6.99519 12.0959M1.08821 19.4394L1.16073 19.5082L1.0882 19.4394C1.0882 19.4394 1.08821 19.4394 1.08821 19.4394ZM1.08821 19.4394C1.85903 18.6267 1.91051 17.7694 1.96741 16.8216L1.96887 16.7974C2.0264 15.8402 2.09651 14.8023 2.97119 13.709L3.04691 13.7696L2.97119 13.709C3.91039 12.535 5.48661 11.8843 6.99519 12.0959M18.7758 2.27886L18.7758 2.27886C19.0817 2.24664 19.3249 2.32765 19.4872 2.47897C19.6493 2.63015 19.7421 2.86224 19.7264 3.15543C19.6951 3.74145 19.3416 4.48373 18.781 5.30273C18.2231 6.1179 17.4703 6.99451 16.6608 7.84626C15.0817 9.50787 13.295 11.0665 12.3397 11.8773L10.3667 9.90421C11.1523 8.91203 12.6331 7.09555 14.2232 5.48133C15.0374 4.65479 15.8781 3.88342 16.6673 3.30321C17.4598 2.72048 18.1869 2.34078 18.7758 2.27886ZM8.01502 18.334C7.49767 18.8794 6.65877 19.3179 5.68379 19.5496C4.75069 19.7714 3.70125 19.8019 2.70507 19.5612C3.22869 18.663 3.2791 17.8077 3.32612 17.0096C3.32726 16.9904 3.32838 16.9712 3.32952 16.9521C3.37997 16.1009 3.4395 15.3197 4.04242 14.5661C5.03947 13.3197 7.03269 12.9857 8.17921 14.1322C8.85404 14.8071 9.03437 15.62 8.9359 16.3845C8.83698 17.1523 8.45658 17.8684 8.01502 18.334ZM8.35493 12.5557C8.62974 12.1771 9.0292 11.6352 9.51794 10.9956L11.2819 12.7597C10.6654 13.2654 10.1428 13.6794 9.7771 13.9649C9.44128 13.4014 8.95205 12.8966 8.35493 12.5557Z" fill="#1B314B" stroke="#1B314B" stroke-width="0.2"/>
</svg>
