<svg width="23" height="20" viewBox="0 0 23 20" fill="none" xmlns="http://www.w3.org/2000/svg">
<mask id="path-1-outside-1" maskUnits="userSpaceOnUse" x="0" y="0" width="23" height="20" fill="black">
<rect fill="white" width="23" height="20"/>
<path d="M21.4619 8.21835L14.5333 1.52136C13.8142 0.826254 12.6502 0.826175 11.931 1.52136L9.33329 4.03224C9.33312 4.0324 9.33292 4.03252 9.33276 4.03267C9.33259 4.03283 9.33247 4.03303 9.3323 4.03319L1.53811 11.5668C0.820629 12.2603 0.820629 13.3887 1.53811 14.0821L6.44583 18.8258C6.56121 18.9374 6.71768 19 6.88089 19H12.6547C12.8179 19 12.9744 18.9373 13.0898 18.8258L18.8635 13.2452C18.8635 13.2451 18.8636 13.245 18.8637 13.245C18.8638 13.245 18.8638 13.2449 18.8639 13.2448L21.4619 10.7336C22.1794 10.0402 22.1794 8.91179 21.4619 8.21835ZM12.3999 17.8106H7.1358L2.40826 13.2411C2.17062 13.0113 2.17062 12.6376 2.40826 12.4078L9.76785 5.29426L17.5585 12.8245L12.3999 17.8106ZM20.5918 9.89259L18.4286 11.9834L10.638 4.45326L12.8012 2.3624C13.0395 2.13213 13.425 2.13213 13.6632 2.3624L20.5918 9.0594C20.8294 9.28911 20.8294 9.66287 20.5918 9.89259Z"/>
</mask>
<path d="M21.4619 8.21835L14.5333 1.52136C13.8142 0.826254 12.6502 0.826175 11.931 1.52136L9.33329 4.03224C9.33312 4.0324 9.33292 4.03252 9.33276 4.03267C9.33259 4.03283 9.33247 4.03303 9.3323 4.03319L1.53811 11.5668C0.820629 12.2603 0.820629 13.3887 1.53811 14.0821L6.44583 18.8258C6.56121 18.9374 6.71768 19 6.88089 19H12.6547C12.8179 19 12.9744 18.9373 13.0898 18.8258L18.8635 13.2452C18.8635 13.2451 18.8636 13.245 18.8637 13.245C18.8638 13.245 18.8638 13.2449 18.8639 13.2448L21.4619 10.7336C22.1794 10.0402 22.1794 8.91179 21.4619 8.21835ZM12.3999 17.8106H7.1358L2.40826 13.2411C2.17062 13.0113 2.17062 12.6376 2.40826 12.4078L9.76785 5.29426L17.5585 12.8245L12.3999 17.8106ZM20.5918 9.89259L18.4286 11.9834L10.638 4.45326L12.8012 2.3624C13.0395 2.13213 13.425 2.13213 13.6632 2.3624L20.5918 9.0594C20.8294 9.28911 20.8294 9.66287 20.5918 9.89259Z" fill="#1B314B"/>
<path d="M21.4619 8.21835L21.1839 8.50596L21.1839 8.50597L21.4619 8.21835ZM14.5333 1.52136L14.2553 1.80896L14.2553 1.80896L14.5333 1.52136ZM11.931 1.52136L12.209 1.80897L12.209 1.80896L11.931 1.52136ZM9.33329 4.03224L9.05529 3.74463L9.05528 3.74464L9.33329 4.03224ZM9.3323 4.03319L9.6103 4.3208L9.61031 4.32079L9.3323 4.03319ZM1.53811 11.5668L1.8161 11.8544L1.81611 11.8544L1.53811 11.5668ZM1.53811 14.0821L1.81611 13.7945L1.8161 13.7945L1.53811 14.0821ZM6.44583 18.8258L6.72384 18.5382L6.72383 18.5382L6.44583 18.8258ZM13.0898 18.8258L12.8118 18.5382L12.8118 18.5382L13.0898 18.8258ZM18.8635 13.2452L19.1415 13.5328L19.1887 13.4872L19.2188 13.4289L18.8635 13.2452ZM18.8639 13.2448L18.5859 12.9572L18.5387 13.0028L18.5086 13.061L18.8639 13.2448ZM21.4619 10.7336L21.1839 10.446L21.1839 10.446L21.4619 10.7336ZM12.3999 17.8106V18.2106H12.5617L12.6779 18.0982L12.3999 17.8106ZM7.1358 17.8106L6.8578 18.0982L6.97408 18.2106H7.1358V17.8106ZM2.40826 13.2411L2.13025 13.5287L2.13026 13.5287L2.40826 13.2411ZM2.40826 12.4078L2.13026 12.1202L2.13025 12.1202L2.40826 12.4078ZM9.76785 5.29426L10.0458 5.00665L9.76785 4.73795L9.48985 5.00665L9.76785 5.29426ZM17.5585 12.8245L17.8365 13.1121L18.134 12.8244L17.8365 12.5368L17.5585 12.8245ZM20.5918 9.89259L20.8698 10.1802L20.8698 10.1802L20.5918 9.89259ZM18.4286 11.9834L18.1506 12.2711L18.4286 12.5398L18.7066 12.2711L18.4286 11.9834ZM10.638 4.45326L10.36 4.16564L10.0624 4.45325L10.36 4.74087L10.638 4.45326ZM12.8012 2.3624L12.5232 2.07478L12.5232 2.07479L12.8012 2.3624ZM13.6632 2.3624L13.3852 2.65L13.3852 2.65001L13.6632 2.3624ZM20.5918 9.0594L20.8698 8.7718L20.8698 8.77179L20.5918 9.0594ZM21.7399 7.93074L14.8113 1.23375L14.2553 1.80896L21.1839 8.50596L21.7399 7.93074ZM14.8113 1.23375C13.9371 0.388801 12.5273 0.388699 11.653 1.23375L12.209 1.80896C12.7732 1.26365 13.6912 1.26371 14.2553 1.80896L14.8113 1.23375ZM11.653 1.23375L9.05529 3.74463L9.61128 4.31985L12.209 1.80897L11.653 1.23375ZM9.05528 3.74464C9.067 3.73332 9.07712 3.72494 9.0832 3.72006C9.08633 3.71757 9.08888 3.7156 9.09041 3.71443C9.09181 3.71336 9.09302 3.71246 9.09279 3.71263C9.09279 3.71263 9.09278 3.71264 9.09277 3.71264C9.09277 3.71265 9.09275 3.71266 9.09274 3.71267C9.09271 3.71269 9.09267 3.71272 9.09262 3.71276C9.09251 3.71284 9.09235 3.71296 9.09214 3.71312C9.09174 3.71342 9.09108 3.71392 9.09027 3.71453C9.0887 3.71574 9.0861 3.71774 9.08293 3.72028C9.07676 3.72522 9.06655 3.73367 9.05475 3.74508L9.61076 4.32027C9.59905 4.3316 9.58892 4.33998 9.58284 4.34485C9.57972 4.34735 9.57716 4.34931 9.57563 4.35048C9.57423 4.35155 9.57303 4.35245 9.57326 4.35228C9.57326 4.35228 9.57326 4.35228 9.57327 4.35227C9.57328 4.35226 9.57329 4.35226 9.5733 4.35224C9.57333 4.35222 9.57337 4.35219 9.57343 4.35215C9.57353 4.35207 9.5737 4.35195 9.5739 4.35179C9.5743 4.35149 9.57496 4.35099 9.57577 4.35038C9.57735 4.34917 9.57995 4.34717 9.58311 4.34464C9.58929 4.33969 9.5995 4.33124 9.61129 4.31984L9.05528 3.74464ZM9.05475 3.74508C9.04297 3.75646 9.03417 3.76638 9.02895 3.77246C9.02629 3.77557 9.02418 3.77812 9.02291 3.77968C9.02226 3.78047 9.02174 3.78112 9.02142 3.78152C9.02126 3.78172 9.02112 3.78188 9.02104 3.78198C9.021 3.78204 9.02096 3.78208 9.02094 3.78211C9.02093 3.78212 9.02092 3.78213 9.02092 3.78214C9.02091 3.78215 9.02091 3.78215 9.02091 3.78215C9.02073 3.78238 9.02168 3.78119 9.02281 3.77981C9.02404 3.7783 9.02611 3.77579 9.02874 3.77273C9.03388 3.76673 9.0426 3.7569 9.0543 3.74559L9.61031 4.32079C9.62209 4.3094 9.63089 4.29948 9.63611 4.2934C9.63877 4.2903 9.64087 4.28774 9.64215 4.28619C9.6428 4.28539 9.64332 4.28474 9.64364 4.28435C9.6438 4.28415 9.64394 4.28398 9.64402 4.28388C9.64406 4.28383 9.64409 4.28379 9.64412 4.28376C9.64413 4.28374 9.64414 4.28373 9.64414 4.28373C9.64415 4.28372 9.64415 4.28371 9.64415 4.28371C9.64433 4.28349 9.64338 4.28468 9.64225 4.28605C9.64102 4.28756 9.63895 4.29007 9.63632 4.29314C9.63118 4.29913 9.62246 4.30897 9.61076 4.32027L9.05475 3.74508ZM9.05431 3.74558L1.26012 11.2792L1.81611 11.8544L9.6103 4.3208L9.05431 3.74558ZM1.26012 11.2792C0.379963 12.1299 0.379951 13.5191 1.26013 14.3697L1.8161 13.7945C1.26131 13.2583 1.26129 12.3907 1.8161 11.8544L1.26012 11.2792ZM1.26012 14.3697L6.16784 19.1134L6.72383 18.5382L1.81611 13.7945L1.26012 14.3697ZM6.16783 19.1134C6.3592 19.2984 6.61592 19.4 6.88089 19.4V18.6C6.81945 18.6 6.76322 18.5763 6.72384 18.5382L6.16783 19.1134ZM6.88089 19.4H12.6547V18.6H6.88089V19.4ZM12.6547 19.4C12.9197 19.4 13.1765 19.2984 13.3678 19.1134L12.8118 18.5382C12.7724 18.5763 12.7161 18.6 12.6547 18.6V19.4ZM13.3678 19.1134L19.1415 13.5328L18.5855 12.9575L12.8118 18.5382L13.3678 19.1134ZM19.2188 13.4289C19.1795 13.5048 19.1255 13.5504 19.0905 13.5745C19.0607 13.595 19.0318 13.608 19.0378 13.6051L18.6896 12.8849C18.6955 12.882 18.6665 12.8951 18.6367 12.9157C18.6016 12.9398 18.5475 12.9854 18.5082 13.0614L19.2188 13.4289ZM19.0378 13.6051C19.1124 13.5691 19.1593 13.5181 19.1858 13.4823C19.2079 13.4522 19.2222 13.4228 19.2192 13.4286L18.5086 13.061C18.5056 13.0669 18.5197 13.0375 18.5418 13.0075C18.5682 12.9718 18.6151 12.9209 18.6896 12.8849L19.0378 13.6051ZM19.1419 13.5324L21.7399 11.0212L21.1839 10.446L18.5859 12.9572L19.1419 13.5324ZM21.7399 11.0212C22.62 10.1705 22.62 8.7814 21.7399 7.93073L21.1839 8.50597C21.7387 9.04217 21.7387 9.90978 21.1839 10.446L21.7399 11.0212ZM12.3999 17.4106H7.1358V18.2106H12.3999V17.4106ZM7.41379 17.523L2.68626 12.9535L2.13026 13.5287L6.8578 18.0982L7.41379 17.523ZM2.68627 12.9535C2.61128 12.881 2.61128 12.7679 2.68627 12.6954L2.13025 12.1202C1.72995 12.5072 1.72995 13.1417 2.13025 13.5287L2.68627 12.9535ZM2.68625 12.6954L10.0458 5.58187L9.48985 5.00665L2.13026 12.1202L2.68625 12.6954ZM9.48985 5.58187L17.2805 13.1121L17.8365 12.5368L10.0458 5.00665L9.48985 5.58187ZM17.2805 12.5368L12.1219 17.523L12.6779 18.0982L17.8365 13.1121L17.2805 12.5368ZM20.3138 9.60498L18.1506 11.6958L18.7066 12.2711L20.8698 10.1802L20.3138 9.60498ZM18.7066 11.6958L10.916 4.16565L10.36 4.74087L18.1506 12.2711L18.7066 11.6958ZM10.916 4.74087L13.0792 2.65001L12.5232 2.07479L10.36 4.16564L10.916 4.74087ZM13.0792 2.65002C13.1624 2.56957 13.302 2.56961 13.3852 2.65L13.9412 2.0748C13.5479 1.69465 12.9165 1.69468 12.5232 2.07478L13.0792 2.65002ZM13.3852 2.65001L20.3138 9.347L20.8698 8.77179L13.9412 2.07479L13.3852 2.65001ZM20.3138 9.34699C20.3888 9.41948 20.3888 9.53251 20.3138 9.60499L20.8698 10.1802C21.2701 9.79324 21.2701 9.15875 20.8698 8.7718L20.3138 9.34699Z" fill="#1B314B" mask="url(#path-1-outside-1)"/>
</svg>
