<svg width="48" height="34" viewBox="0 0 48 34" fill="none" xmlns="http://www.w3.org/2000/svg">
<path d="M43.2 0H4.8C2.16 0 0.024 2.18571 0.024 4.85714L0 29.1429C0 31.8143 2.16 34 4.8 34H43.2C45.84 34 48 31.8143 48 29.1429V4.85714C48 2.18571 45.84 0 43.2 0ZM21.6 7.28571H26.4V12.1429H21.6V7.28571ZM21.6 14.5714H26.4V19.4286H21.6V14.5714ZM14.4 7.28571H19.2V12.1429H14.4V7.28571ZM14.4 14.5714H19.2V19.4286H14.4V14.5714ZM12 19.4286H7.2V14.5714H12V19.4286ZM12 12.1429H7.2V7.28571H12V12.1429ZM33.6 29.1429H14.4V24.2857H33.6V29.1429ZM33.6 19.4286H28.8V14.5714H33.6V19.4286ZM33.6 12.1429H28.8V7.28571H33.6V12.1429ZM40.8 19.4286H36V14.5714H40.8V19.4286ZM40.8 12.1429H36V7.28571H40.8V12.1429Z" fill="#51BA65"/>
</svg>
