<svg width="48" height="21" viewBox="0 0 48 21" fill="none" xmlns="http://www.w3.org/2000/svg">
<path d="M8.09375 15.6328L8.90625 15.5156L12.3672 5.625H14.7031L18.1406 15.5156L18.9531 15.6328V17H15.0781V15.6328L15.8672 15.4922L15.3672 13.9297H11.6797L11.1797 15.4922L11.9688 15.6328V17H8.09375V15.6328ZM12.2188 12.25H14.8281L13.5469 8.24219H13.5L12.2188 12.25ZM24.7656 5.625C26.1042 5.625 27.1484 5.88542 27.8984 6.40625C28.6484 6.92708 29.0234 7.70573 29.0234 8.74219C29.0234 9.26823 28.8828 9.73958 28.6016 10.1562C28.3255 10.5677 27.9219 10.8776 27.3906 11.0859C28.0729 11.2318 28.5833 11.5443 28.9219 12.0234C29.2656 12.5026 29.4375 13.0573 29.4375 13.6875C29.4375 14.776 29.0781 15.6016 28.3594 16.1641C27.6406 16.7214 26.6224 17 25.3047 17H19.7109V15.6328L20.9219 15.3984V7.23438L19.7109 7V5.625H20.9219H24.7656ZM23.2031 11.9688V15.25H25.3047C25.9089 15.25 26.3698 15.1198 26.6875 14.8594C27.0052 14.5938 27.1641 14.2031 27.1641 13.6875C27.1641 13.1302 27.0286 12.7057 26.7578 12.4141C26.487 12.1172 26.0599 11.9688 25.4766 11.9688H23.2031ZM23.2031 10.3906H24.8438C25.4531 10.3906 25.9219 10.2656 26.25 10.0156C26.5781 9.76562 26.7422 9.40104 26.7422 8.92188C26.7422 8.39583 26.5755 8.00781 26.2422 7.75781C25.9141 7.50781 25.4219 7.38281 24.7656 7.38281H23.2031V10.3906ZM39.6094 9.46094H37.9141L37.6797 7.94531C37.4557 7.72135 37.1719 7.54427 36.8281 7.41406C36.4896 7.28385 36.0885 7.21875 35.625 7.21875C34.6354 7.21875 33.8724 7.57812 33.3359 8.29688C32.8047 9.01562 32.5391 9.95312 32.5391 11.1094V11.5078C32.5391 12.6641 32.8047 13.6042 33.3359 14.3281C33.8672 15.0521 34.6172 15.4141 35.5859 15.4141C36.0339 15.4141 36.4427 15.349 36.8125 15.2188C37.1875 15.0885 37.4766 14.9115 37.6797 14.6875L37.9141 13.1719H39.6094V15.4219C39.151 15.9531 38.5651 16.3776 37.8516 16.6953C37.1432 17.0078 36.349 17.1641 35.4688 17.1641C33.9427 17.1641 32.6927 16.6354 31.7188 15.5781C30.7448 14.5208 30.2578 13.1641 30.2578 11.5078V11.125C30.2578 9.47396 30.7422 8.11719 31.7109 7.05469C32.6797 5.99219 33.9323 5.46094 35.4688 5.46094C36.349 5.46094 37.1432 5.6224 37.8516 5.94531C38.5599 6.26302 39.1458 6.6849 39.6094 7.21094V9.46094Z" fill="#1B314B"/>
<line x1="42" y1="3" x2="42" y2="19" stroke="#707E8E" stroke-width="2" stroke-linecap="round"/>
</svg>
